<mxfile host="app.diagrams.net" modified="2020-05-31T18:10:37.755Z" agent="5.0 (X11)" etag="wtyE40mt2k2n8bYS70j1" version="13.1.11" type="github">
  <diagram id="ed8038fc-ee7a-a30b-6c35-59c00f2fe141" name="Page-1">
    <mxGraphModel dx="1422" dy="794" grid="1" gridSize="10" guides="1" tooltips="1" connect="1" arrows="1" fold="1" page="1" pageScale="1" pageWidth="850" pageHeight="1400" background="#ffffff" math="1" shadow="0">
      <root>
        <mxCell id="0" />
        <mxCell id="1" parent="0" />
        <mxCell id="76" value="" style="group" parent="1" vertex="1" connectable="0">
          <mxGeometry x="5" width="606" height="370" as="geometry" />
        </mxCell>
        <mxCell id="75" value="" style="group" parent="76" vertex="1" connectable="0">
          <mxGeometry width="606" height="370" as="geometry" />
        </mxCell>
        <mxCell id="2" value="" style="rounded=0;whiteSpace=wrap;html=1;" parent="75" vertex="1">
          <mxGeometry x="65" y="28" width="345" height="308" as="geometry" />
        </mxCell>
        <mxCell id="3" value="&lt;font style=&quot;font-size: 18px&quot;&gt;$$-1$$&lt;/font&gt;" style="ellipse;whiteSpace=wrap;html=1;aspect=fixed;fillColor=#ffcd28;strokeColor=#d79b00;gradientColor=#ffa500;" parent="75" vertex="1">
          <mxGeometry x="279.1895223420647" y="112.12121212121212" width="37.3497688751926" height="37.3497688751926" as="geometry" />
        </mxCell>
        <mxCell id="4" value="" style="group" parent="75" vertex="1" connectable="0">
          <mxGeometry x="220.36363636363637" y="214.8989898989899" width="56.02465331278891" height="65.4040404040404" as="geometry" />
        </mxCell>
        <mxCell id="5" value="&lt;span&gt;&lt;font style=&quot;font-size: 18px&quot;&gt;$$\sigma$$&lt;/font&gt;&lt;/span&gt;" style="rounded=0;whiteSpace=wrap;html=1;fontSize=20;fillColor=#ffcc99;strokeColor=#36393d;" parent="4" vertex="1">
          <mxGeometry width="56.02465331278891" height="18.686868686868685" as="geometry" />
        </mxCell>
        <mxCell id="6" value="FC" style="rounded=0;whiteSpace=wrap;html=1;fontSize=20;fillColor=#cce5ff;strokeColor=#36393d;" parent="4" vertex="1">
          <mxGeometry y="18.686868686868685" width="56.02465331278891" height="46.71717171717171" as="geometry" />
        </mxCell>
        <mxCell id="7" value="" style="group" parent="75" vertex="1" connectable="0">
          <mxGeometry x="118.58551617873651" y="214.8989898989899" width="251.17719568567026" height="65.4040404040404" as="geometry" />
        </mxCell>
        <mxCell id="8" value="&lt;span&gt;&lt;font style=&quot;font-size: 18px&quot;&gt;$$\sigma$$&lt;/font&gt;&lt;/span&gt;" style="rounded=0;whiteSpace=wrap;html=1;fontSize=20;fillColor=#ffcc99;strokeColor=#36393d;" parent="7" vertex="1">
          <mxGeometry width="56.02465331278891" height="18.686868686868685" as="geometry" />
        </mxCell>
        <mxCell id="9" value="FC" style="rounded=0;whiteSpace=wrap;html=1;fontSize=20;fillColor=#cce5ff;strokeColor=#36393d;" parent="7" vertex="1">
          <mxGeometry y="18.686868686868685" width="56.02465331278891" height="46.71717171717171" as="geometry" />
        </mxCell>
        <mxCell id="28" value="" style="endArrow=classic;html=1;fontSize=20;strokeWidth=3;strokeColor=#B5739D;" parent="7" edge="1">
          <mxGeometry width="50" height="50" relative="1" as="geometry">
            <mxPoint x="26.61171032357473" as="sourcePoint" />
            <mxPoint x="26.61171032357473" y="-28.030303030303028" as="targetPoint" />
          </mxGeometry>
        </mxCell>
        <mxCell id="72" value="$$\textbf{r}_{(t)}$$" style="text;html=1;resizable=0;points=[];autosize=1;align=left;verticalAlign=top;spacingTop=-4;fontSize=20;" parent="7" vertex="1">
          <mxGeometry x="33.61479198767334" y="-49.520202020202014" width="230" height="30" as="geometry" />
        </mxCell>
        <mxCell id="10" value="$$\textbf{x}_{(t)}$$&lt;br&gt;" style="text;html=1;resizable=0;points=[];autosize=1;align=left;verticalAlign=top;spacingTop=-4;fontSize=20;" parent="75" vertex="1">
          <mxGeometry x="261.44838212634824" y="315.80808080808083" width="180" height="30" as="geometry" />
        </mxCell>
        <mxCell id="11" value="" style="group" parent="75" vertex="1" connectable="0">
          <mxGeometry x="341.75038520801235" y="210.22727272727272" width="56.02465331278891" height="65.4040404040404" as="geometry" />
        </mxCell>
        <mxCell id="12" value="&lt;font style=&quot;font-size: 18px&quot;&gt;&lt;span&gt;&lt;font style=&quot;font-size: 18px&quot;&gt;$$tanh$$&lt;/font&gt;&lt;/span&gt;&lt;/font&gt;" style="rounded=0;whiteSpace=wrap;html=1;fontSize=20;fillColor=#ffff88;strokeColor=#36393d;" parent="11" vertex="1">
          <mxGeometry width="56.02465331278891" height="18.686868686868685" as="geometry" />
        </mxCell>
        <mxCell id="13" value="FC" style="rounded=0;whiteSpace=wrap;html=1;fontSize=20;fillColor=#cce5ff;strokeColor=#36393d;" parent="11" vertex="1">
          <mxGeometry y="18.686868686868685" width="56.02465331278891" height="46.71717171717171" as="geometry" />
        </mxCell>
        <mxCell id="14" value="$$\textbf{h}_{(t-1)}$$&lt;br&gt;" style="text;html=1;resizable=0;points=[];autosize=1;align=left;verticalAlign=top;spacingTop=-4;fontSize=20;" parent="75" vertex="1">
          <mxGeometry y="14.015151515151516" width="200" height="30" as="geometry" />
        </mxCell>
        <mxCell id="15" value="$$\textbf{h}_{(t)}$$&lt;br&gt;" style="text;html=1;resizable=0;points=[];autosize=1;align=left;verticalAlign=top;spacingTop=-4;fontSize=20;" parent="75" vertex="1">
          <mxGeometry x="437.9260400616333" y="33.63636363636364" width="180" height="30" as="geometry" />
        </mxCell>
        <mxCell id="16" value="$$\textbf{y}_{(t)}$$&lt;br&gt;" style="text;html=1;resizable=0;points=[];autosize=1;align=left;verticalAlign=top;spacingTop=-4;fontSize=20;" parent="75" vertex="1">
          <mxGeometry x="437.9260400616333" width="180" height="30" as="geometry" />
        </mxCell>
        <mxCell id="17" value="" style="endArrow=classic;html=1;fontSize=20;strokeWidth=3;strokeColor=#B5739D;" parent="75" edge="1">
          <mxGeometry width="50" height="50" relative="1" as="geometry">
            <mxPoint x="239.03852080123266" y="327.020202020202" as="sourcePoint" />
            <mxPoint x="239.03852080123266" y="280.3030303030303" as="targetPoint" />
          </mxGeometry>
        </mxCell>
        <mxCell id="18" value="" style="endArrow=classic;html=1;fontSize=20;strokeWidth=3;strokeColor=#B5739D;" parent="75" edge="1">
          <mxGeometry width="50" height="50" relative="1" as="geometry">
            <mxPoint x="257.71340523882895" y="364.3939393939394" as="sourcePoint" />
            <mxPoint x="257.71340523882895" y="280.3030303030303" as="targetPoint" />
          </mxGeometry>
        </mxCell>
        <mxCell id="20" value="" style="endArrow=none;html=1;fontSize=20;strokeWidth=3;strokeColor=#B5739D;endFill=0;" parent="75" edge="1">
          <mxGeometry width="50" height="50" relative="1" as="geometry">
            <mxPoint x="79.36825885978428" y="327.020202020202" as="sourcePoint" />
            <mxPoint x="79.8351309707242" y="205.55555555555557" as="targetPoint" />
          </mxGeometry>
        </mxCell>
        <mxCell id="22" value="" style="endArrow=classic;html=1;fontSize=20;strokeWidth=3;strokeColor=#B5739D;" parent="75" edge="1">
          <mxGeometry width="50" height="50" relative="1" as="geometry">
            <mxPoint x="24.277349768875194" y="66.33838383838383" as="sourcePoint" />
            <mxPoint x="108.31432973805855" y="66.33838383838383" as="targetPoint" />
          </mxGeometry>
        </mxCell>
        <mxCell id="24" value="" style="endArrow=classic;html=1;fontSize=20;strokeWidth=3;strokeColor=#B5739D;" parent="75" edge="1">
          <mxGeometry width="50" height="50" relative="1" as="geometry">
            <mxPoint x="80.3020030816641" y="65.4040404040404" as="sourcePoint" />
            <mxPoint x="79.8351309707242" y="210.22727272727272" as="targetPoint" />
          </mxGeometry>
        </mxCell>
        <mxCell id="26" value="" style="endArrow=none;html=1;fontSize=20;strokeWidth=3;strokeColor=#B5739D;endFill=0;" parent="75" edge="1">
          <mxGeometry width="50" height="50" relative="1" as="geometry">
            <mxPoint x="239.03852080123266" y="327.020202020202" as="sourcePoint" />
            <mxPoint x="79.36825885978428" y="327.020202020202" as="targetPoint" />
          </mxGeometry>
        </mxCell>
        <mxCell id="29" value="$$\bigoplus$$" style="ellipse;whiteSpace=wrap;html=1;aspect=fixed;fillColor=#f8cecc;strokeColor=#b85450;gradientColor=#ea6b66;" parent="75" vertex="1">
          <mxGeometry x="126.98921417565485" y="149.4949494949495" width="37.3497688751926" height="37.3497688751926" as="geometry" />
        </mxCell>
        <mxCell id="30" value="$$\bigotimes$$" style="ellipse;whiteSpace=wrap;html=1;aspect=fixed;fillColor=#f8cecc;strokeColor=#b85450;gradientColor=#ea6b66;" parent="75" vertex="1">
          <mxGeometry x="230.63482280431433" y="47.651515151515156" width="37.3497688751926" height="37.3497688751926" as="geometry" />
        </mxCell>
        <mxCell id="31" value="" style="endArrow=none;html=1;fontSize=20;strokeWidth=3;strokeColor=#B5739D;endFill=0;exitX=0;exitY=0.5;" parent="75" source="30" edge="1">
          <mxGeometry width="50" height="50" relative="1" as="geometry">
            <mxPoint x="183.01386748844376" y="66.80555555555556" as="sourcePoint" />
            <mxPoint x="108.31432973805855" y="66.80555555555556" as="targetPoint" />
          </mxGeometry>
        </mxCell>
        <mxCell id="32" value="" style="endArrow=classic;html=1;fontSize=20;strokeWidth=3;strokeColor=#B5739D;entryX=0.5;entryY=1;" parent="75" target="30" edge="1">
          <mxGeometry width="50" height="50" relative="1" as="geometry">
            <mxPoint x="249.30970724191064" y="214.8989898989899" as="sourcePoint" />
            <mxPoint x="247.442218798151" y="102.77777777777779" as="targetPoint" />
          </mxGeometry>
        </mxCell>
        <mxCell id="33" value="" style="endArrow=classic;html=1;fontSize=20;strokeWidth=3;strokeColor=#B5739D;entryX=0;entryY=0.5;" parent="75" target="34" edge="1">
          <mxGeometry width="50" height="50" relative="1" as="geometry">
            <mxPoint x="267.98459167950693" y="65.87121212121212" as="sourcePoint" />
            <mxPoint x="352.02157164869027" y="65.87121212121212" as="targetPoint" />
          </mxGeometry>
        </mxCell>
        <mxCell id="35" value="" style="endArrow=classic;html=1;fontSize=20;strokeWidth=3;strokeColor=#B5739D;" parent="75" edge="1">
          <mxGeometry width="50" height="50" relative="1" as="geometry">
            <mxPoint x="155.9352850539291" y="313.0050505050505" as="sourcePoint" />
            <mxPoint x="155.9352850539291" y="280.3030303030303" as="targetPoint" />
          </mxGeometry>
        </mxCell>
        <mxCell id="36" value="" style="endArrow=none;html=1;fontSize=20;strokeWidth=3;strokeColor=#B5739D;endFill=0;" parent="75" edge="1">
          <mxGeometry width="50" height="50" relative="1" as="geometry">
            <mxPoint x="257.71340523882895" y="313.0050505050505" as="sourcePoint" />
            <mxPoint x="155.0015408320493" y="313.0050505050505" as="targetPoint" />
          </mxGeometry>
        </mxCell>
        <mxCell id="37" value="" style="endArrow=classic;html=1;fontSize=20;strokeWidth=3;strokeColor=#B5739D;" parent="75" edge="1">
          <mxGeometry width="50" height="50" relative="1" as="geometry">
            <mxPoint x="140.06163328197226" y="327.020202020202" as="sourcePoint" />
            <mxPoint x="140.06163328197226" y="280.3030303030303" as="targetPoint" />
          </mxGeometry>
        </mxCell>
        <mxCell id="38" value="$$\bigotimes$$" style="ellipse;whiteSpace=wrap;html=1;aspect=fixed;fillColor=#f8cecc;strokeColor=#b85450;gradientColor=#ea6b66;" parent="75" vertex="1">
          <mxGeometry x="351.08782742681046" y="112.12121212121212" width="37.3497688751926" height="37.3497688751926" as="geometry" />
        </mxCell>
        <mxCell id="39" value="" style="endArrow=classic;html=1;fontSize=20;strokeWidth=3;strokeColor=#B5739D;" parent="75" edge="1">
          <mxGeometry width="50" height="50" relative="1" as="geometry">
            <mxPoint x="316.5392912172573" y="130.8080808080808" as="sourcePoint" />
            <mxPoint x="351.08782742681046" y="130.8080808080808" as="targetPoint" />
          </mxGeometry>
        </mxCell>
        <mxCell id="40" value="" style="endArrow=classic;html=1;fontSize=20;strokeWidth=3;strokeColor=#B5739D;" parent="75" source="34" edge="1">
          <mxGeometry width="50" height="50" relative="1" as="geometry">
            <mxPoint x="388.4375963020031" y="65.4040404040404" as="sourcePoint" />
            <mxPoint x="436.05855161787366" y="65.4040404040404" as="targetPoint" />
          </mxGeometry>
        </mxCell>
        <mxCell id="41" value="" style="endArrow=classic;html=1;fontSize=20;strokeWidth=3;strokeColor=#B5739D;entryX=0;entryY=0.5;" parent="75" target="29" edge="1">
          <mxGeometry width="50" height="50" relative="1" as="geometry">
            <mxPoint x="81.23574730354392" y="168.1818181818182" as="sourcePoint" />
            <mxPoint x="165.27272727272728" y="148.56060606060606" as="targetPoint" />
          </mxGeometry>
        </mxCell>
        <mxCell id="57" value="" style="endArrow=classic;html=1;fontSize=20;strokeWidth=3;strokeColor=#B5739D;" parent="75" target="13" edge="1">
          <mxGeometry width="50" height="50" relative="1" as="geometry">
            <mxPoint x="369.76271186440675" y="313.0050505050505" as="sourcePoint" />
            <mxPoint x="369.76271186440675" y="214.8989898989899" as="targetPoint" />
          </mxGeometry>
        </mxCell>
        <mxCell id="58" value="" style="endArrow=none;html=1;fontSize=20;strokeWidth=3;strokeColor=#B5739D;endFill=0;" parent="75" edge="1">
          <mxGeometry width="50" height="50" relative="1" as="geometry">
            <mxPoint x="370.6964560862866" y="313.0050505050505" as="sourcePoint" />
            <mxPoint x="258.64714946070876" y="313.0050505050505" as="targetPoint" />
          </mxGeometry>
        </mxCell>
        <mxCell id="60" value="" style="endArrow=classic;html=1;fontSize=20;strokeWidth=3;strokeColor=#B5739D;entryX=0;entryY=0.5;rounded=0;edgeStyle=orthogonalEdgeStyle;" parent="75" target="13" edge="1">
          <mxGeometry width="50" height="50" relative="1" as="geometry">
            <mxPoint x="165.27272727272728" y="167.71464646464648" as="sourcePoint" />
            <mxPoint x="249.30970724191064" y="167.71464646464648" as="targetPoint" />
            <Array as="points">
              <mxPoint x="305.3343605546995" y="167.24747474747474" />
              <mxPoint x="305.3343605546995" y="252.27272727272728" />
            </Array>
          </mxGeometry>
        </mxCell>
        <mxCell id="34" value="$$\bigoplus$$" style="ellipse;whiteSpace=wrap;html=1;aspect=fixed;fillColor=#ffcd28;strokeColor=#d79b00;gradientColor=#ffa500;" parent="75" vertex="1">
          <mxGeometry x="351.08782742681046" y="47.651515151515156" width="37.3497688751926" height="37.3497688751926" as="geometry" />
        </mxCell>
        <mxCell id="62" value="" style="endArrow=classic;html=1;fontSize=20;strokeWidth=3;strokeColor=#B5739D;entryX=0;entryY=0.5;" parent="75" target="3" edge="1">
          <mxGeometry width="50" height="50" relative="1" as="geometry">
            <mxPoint x="248.37596302003104" y="130.8080808080808" as="sourcePoint" />
            <mxPoint x="276.38828967642525" y="130.8080808080808" as="targetPoint" />
          </mxGeometry>
        </mxCell>
        <mxCell id="67" value="" style="endArrow=classic;html=1;fontSize=20;strokeWidth=3;strokeColor=#B5739D;exitX=0.5;exitY=0;entryX=0.5;entryY=1;" parent="75" source="38" target="34" edge="1">
          <mxGeometry width="50" height="50" relative="1" as="geometry">
            <mxPoint x="368.82896764252695" y="112.12121212121212" as="sourcePoint" />
            <mxPoint x="368.82896764252695" y="74.74747474747475" as="targetPoint" />
          </mxGeometry>
        </mxCell>
        <mxCell id="64" value="" style="endArrow=classic;html=1;fontSize=20;strokeWidth=3;strokeColor=#B5739D;" parent="75" source="12" target="38" edge="1">
          <mxGeometry width="50" height="50" relative="1" as="geometry">
            <mxPoint x="369.76271186440675" y="148.56060606060606" as="sourcePoint" />
            <mxPoint x="369.76271186440675" y="115.85858585858585" as="targetPoint" />
          </mxGeometry>
        </mxCell>
        <mxCell id="71" value="" style="endArrow=classic;html=1;fontSize=20;strokeWidth=3;strokeColor=#B5739D;entryX=0;entryY=0.5;exitX=0.5;exitY=0;rounded=0;edgeStyle=orthogonalEdgeStyle;" parent="75" source="34" edge="1">
          <mxGeometry width="50" height="50" relative="1" as="geometry">
            <mxPoint x="352.95531587057013" y="37.84090909090909" as="sourcePoint" />
            <mxPoint x="435.7473035439138" y="38.30808080808081" as="targetPoint" />
            <Array as="points">
              <mxPoint x="369.76271186440675" y="38.30808080808081" />
            </Array>
          </mxGeometry>
        </mxCell>
        <mxCell id="73" value="$$\textbf{z}_{(t)}$$" style="text;html=1;resizable=0;points=[];autosize=1;align=left;verticalAlign=top;spacingTop=-4;fontSize=20;" parent="75" vertex="1">
          <mxGeometry x="252.11093990755006" y="164.44444444444446" width="230" height="30" as="geometry" />
        </mxCell>
        <mxCell id="74" value="$$\textbf{g}_{(t)}$$" style="text;html=1;resizable=0;points=[];autosize=1;align=left;verticalAlign=top;spacingTop=-4;fontSize=20;" parent="75" vertex="1">
          <mxGeometry x="374.1001540832049" y="61.141414141414145" width="230" height="30" as="geometry" />
        </mxCell>
      </root>
    </mxGraphModel>
  </diagram>
</mxfile>
